<?xml version="1.0" encoding="UTF-8"?>
<svg width="32px" height="21px" viewBox="0 0 32 21" version="1.1" xmlns="http://www.w3.org/2000/svg" xmlns:xlink="http://www.w3.org/1999/xlink">
    <!-- Generator: Sketch 62 (91390) - https://sketch.com -->
    <title></title>
    <desc>Created with Sketch.</desc>
    <g id="Misc" stroke="none" stroke-width="1" fill="none" fill-rule="evenodd">
        <g id="SEO---Type1-Copy-5" transform="translate(-74.000000, -116.000000)" fill="#E6632F" fill-rule="nonzero">
            <path d="M103.59375,136.796875 C104.260417,136.796875 104.828125,136.5625 105.296875,136.09375 C105.765625,135.625 106,135.0625 106,134.40625 L106,134.40625 L106,120 C106,119.78125 105.921875,119.59375 105.765625,119.4375 C105.609375,119.28125 105.421875,119.203125 105.203125,119.203125 C104.984375,119.203125 104.796875,119.28125 104.640625,119.4375 C104.484375,119.59375 104.40625,119.78125 104.40625,120 L104.40625,120 L104.40625,134.40625 C104.40625,134.625 104.328125,134.8125 104.171875,134.96875 C104.015625,135.125 103.822917,135.203125 103.59375,135.203125 L103.59375,135.203125 L76.40625,135.203125 C76.1770833,135.203125 75.984375,135.125 75.828125,134.96875 C75.671875,134.8125 75.59375,134.625 75.59375,134.40625 L75.59375,134.40625 L75.59375,118.40625 C75.59375,118.177083 75.671875,117.984375 75.828125,117.828125 C75.984375,117.671875 76.1770833,117.59375 76.40625,117.59375 L76.40625,117.59375 L100.40625,117.59375 C100.625,117.59375 100.8125,117.671875 100.96875,117.828125 C101.125,117.984375 101.203125,118.177083 101.203125,118.40625 L101.203125,118.40625 L101.203125,132.796875 C101.203125,133.015625 101.28125,133.203125 101.4375,133.359375 C101.59375,133.515625 101.78125,133.59375 102,133.59375 C102.21875,133.59375 102.40625,133.515625 102.5625,133.359375 C102.71875,133.203125 102.796875,133.015625 102.796875,132.796875 L102.796875,132.796875 L102.796875,118.40625 C102.796875,117.739583 102.5625,117.171875 102.09375,116.703125 C101.625,116.234375 101.0625,116 100.40625,116 L100.40625,116 L76.40625,116 C75.7395833,116 75.171875,116.234375 74.703125,116.703125 C74.234375,117.171875 74,117.739583 74,118.40625 L74,118.40625 L74,134.40625 C74,135.0625 74.234375,135.625 74.703125,136.09375 C75.171875,136.5625 75.7395833,136.796875 76.40625,136.796875 L76.40625,136.796875 L103.59375,136.796875 Z M97.203125,122.40625 C97.421875,122.40625 97.609375,122.328125 97.765625,122.171875 C97.921875,122.015625 98,121.822917 98,121.59375 C98,121.375 97.921875,121.1875 97.765625,121.03125 C97.609375,120.875 97.421875,120.796875 97.203125,120.796875 L97.203125,120.796875 L79.59375,120.796875 C79.375,120.796875 79.1875,120.875 79.03125,121.03125 C78.875,121.1875 78.796875,121.375 78.796875,121.59375 C78.796875,121.822917 78.875,122.015625 79.03125,122.171875 C79.1875,122.328125 79.375,122.40625 79.59375,122.40625 L79.59375,122.40625 L97.203125,122.40625 Z M97.203125,132 C97.421875,132 97.609375,131.921875 97.765625,131.765625 C97.921875,131.609375 98,131.421875 98,131.203125 L98,131.203125 L98,124.796875 C98,124.578125 97.921875,124.390625 97.765625,124.234375 C97.609375,124.078125 97.421875,124 97.203125,124 L97.203125,124 L87.59375,124 C87.375,124 87.1875,124.078125 87.03125,124.234375 C86.875,124.390625 86.796875,124.578125 86.796875,124.796875 L86.796875,124.796875 L86.796875,131.203125 C86.796875,131.421875 86.875,131.609375 87.03125,131.765625 C87.1875,131.921875 87.375,132 87.59375,132 L87.59375,132 L97.203125,132 Z M84.40625,125.59375 C84.625,125.59375 84.8125,125.515625 84.96875,125.359375 C85.125,125.203125 85.203125,125.015625 85.203125,124.796875 C85.203125,124.578125 85.125,124.390625 84.96875,124.234375 C84.8125,124.078125 84.625,124 84.40625,124 L84.40625,124 L79.59375,124 C79.375,124 79.1875,124.078125 79.03125,124.234375 C78.875,124.390625 78.796875,124.578125 78.796875,124.796875 C78.796875,125.015625 78.875,125.203125 79.03125,125.359375 C79.1875,125.515625 79.375,125.59375 79.59375,125.59375 L79.59375,125.59375 L84.40625,125.59375 Z M96.40625,130.40625 L88.40625,130.40625 L88.40625,125.59375 L96.40625,125.59375 L96.40625,130.40625 Z M84.40625,128.796875 C84.625,128.796875 84.8125,128.71875 84.96875,128.5625 C85.125,128.40625 85.203125,128.21875 85.203125,128 C85.203125,127.78125 85.125,127.59375 84.96875,127.4375 C84.8125,127.28125 84.625,127.203125 84.40625,127.203125 L84.40625,127.203125 L79.59375,127.203125 C79.375,127.203125 79.1875,127.28125 79.03125,127.4375 C78.875,127.59375 78.796875,127.78125 78.796875,128 C78.796875,128.21875 78.875,128.40625 79.03125,128.5625 C79.1875,128.71875 79.375,128.796875 79.59375,128.796875 L79.59375,128.796875 L84.40625,128.796875 Z M84.40625,132 C84.625,132 84.8125,131.921875 84.96875,131.765625 C85.125,131.609375 85.203125,131.421875 85.203125,131.203125 C85.203125,130.984375 85.125,130.796875 84.96875,130.640625 C84.8125,130.484375 84.625,130.40625 84.40625,130.40625 L84.40625,130.40625 L79.59375,130.40625 C79.375,130.40625 79.1875,130.484375 79.03125,130.640625 C78.875,130.796875 78.796875,130.984375 78.796875,131.203125 C78.796875,131.421875 78.875,131.609375 79.03125,131.765625 C79.1875,131.921875 79.375,132 79.59375,132 L79.59375,132 L84.40625,132 Z" id=""></path>
        </g>
    </g>
</svg>